# AST/ASF file generated using VICON BodyLanguage
# -----------------------------------------------
:version 1.10
:name VICON
:units
  mass 1.0
  length 0.45
  angle deg
:documentation
   .ast/.asf automatically generated from VICON data using
   VICON BodyBuilder and BodyLanguage model FoxedUp or BRILLIANT.MOD
:root
   order TX TY TZ RX RY RZ
   axis XYZ
   position 0 0 0  
   orientation 0 0 0 
:bonedata
  begin
     id 1 
     name lhipjoint
     direction 0.528046 -0.759594 0.379717 
     length 2.39752 
     axis 0 0 0  XYZ
  end
  begin
     id 2 
     name lfemur
     direction 0.34202 -0.939693 0  
     length 7.31175  
     axis 0 0 20  XYZ
    dof rx ry rz
    limits (-160.0 20.0)
           (-70.0 70.0)
           (-60.0 70.0)
  end
  begin
     id 3 
     name ltibia
     direction 0.34202 -0.939693 0   
     length 7.52482   
     axis 0 0 20   XYZ
    dof rx
    limits (-10.0 170.0)
  end
  begin
     id 4 
     name lfoot
     direction 0.0675379 -0.185559 0.980309   
     length 2.00961   
     axis -90 7.62852e-016 20   XYZ
    dof rx rz
    limits (-45.0 90.0)
           (-70.0 20.0)
  end
  begin
     id 5 
     name ltoes
     direction 1.5352e-011 -4.22286e-011 1   
     length 1.01383   
     axis -90 7.62852e-016 20   XYZ
    dof rx
    limits (-90.0 20.0)
  end
  begin
     id 6 
     name rhipjoint
     direction -0.510274 -0.769251 0.384544   
     length 2.36742  
     axis 0 0 0  XYZ 
  end
  begin
     id 7 
     name rfemur
     direction -0.34202 -0.939693 0   
     length 7.45325   
     axis 0 0 -20   XYZ
    dof rx ry rz
    limits (-160.0 20.0)
           (-70.0 70.0)
           (-70.0 60.0)
  end
  begin
     id 8 
     name rtibia
     direction -0.34202 -0.939693 0   
     length 7.49587   
     axis 0 0 -20   XYZ
    dof rx
    limits (-10.0 170.0)
 end
 begin
     id 9 
     name rfoot
     direction -0.106475 -0.292536 0.950308   
     length 2.20898  
     axis -90 -7.62852e-016 -20   XYZ
    dof rx rz
    limits (-45.0 90.0)
           (-20.0 70.0)
  end
  begin
     id 10 
     name rtoes
     direction -1.53597e-011 -4.22023e-011 1   
     length 1.10065   
     axis -90 -7.62852e-016 -20   XYZ
    dof rx
    limits (-90.0 20.0)
  end
  begin
     id 11 
     name lowerback
     direction 0.0260024 0.998026 -0.0571652   
     length 2.11214   
     axis 0 0 0   XYZ
    dof rx ry rz
    limits (-20.0 45.0)
           (-30.0 30.0)
           (-30.0 30.0)
  end
  begin
     id 12 
     name upperback
     direction 0.0216202 0.999542 -0.0211766   
     length 2.11689   
     axis 0 0 0   XYZ
    dof rx ry rz
    limits (-20.0 45.0)
           (-30.0 30.0)
           (-30.0 30.0)
  end
  begin
     id 13 
     name thorax
     direction 0.00883312 0.999944 0.00589057   
     length 2.11821   
     axis 0 0 0   XYZ
    dof rx ry rz
    limits (-20.0 45.0)
           (-30.0 30.0)
           (-30.0 30.0)
  end
  begin
     id 14 
     name lowerneck
     direction -0.059386 0.994433 0.0870401   
     length 1.81176   
     axis 0 0 0   XYZ
    dof rx ry rz
    limits (-20.0 45.0)
           (-30.0 30.0)
           (-30.0 30.0)
  end
  begin
     id 15 
     name upperneck
     direction 0.0506457 0.97328 -0.223967   
     length 1.82382   
     axis 0 0 0   XYZ
    dof rx ry rz
    limits (-20.0 45.0)
           (-30.0 30.0)
           (-30.0 30.0)
  end
  begin
     id 16
     name head
     direction 0.0205902 0.996147 -0.0852487  
     length 1.84805  
     axis 0 0 0   XYZ
    dof rx ry rz
    limits (-20.0 45.0)
           (-30.0 30.0)
           (-30.0 30.0)
  end
  begin
     id 17 
     name lclavicle
     direction 0.949493 0.303881 -0.0782325  
     length 3.60584  
     axis 0 0 0   XYZ
    dof ry rz
    limits (-20.0 10.0)
           (0.0 20.0)
  end
  begin
     id 18 
     name lhumerus
     direction 1 -4.48965e-011 1.48782e-027   
     length 4.95681   
     axis 180 -30 -90   XYZ
    dof rx ry rz
    limits (-60.0 90.0)
           (-90.0 90.0)
           (-90.0 90.0)
  end
  begin
     id 19
     name lradius
     direction 1 -4.48952e-011 2.06528e-027   
     length 3.40915   
     axis 180 -30 -90   XYZ
    dof rx
    limits (-10.0 170.0)
  end
  begin
     id 20
     name lwrist
     direction 1 -4.48964e-011 1.28021e-027   
     length 1.70457   
     axis -1.61767e-015 90 90   XYZ
    dof ry
    limits (-180.0 0.0)
 end
  begin
     id 21 
     name lhand
     direction 1 -4.49094e-011 2.54887e-027   
     length 0.616403   
     axis -1.63363e-015 90 90   XYZ
    dof rx rz
    limits (-90.0 90.0)
           (-45.0 45.0)
  end
  begin
     id 22 
     name lfingers
     direction 1 -4.49002e-011 5.11407e-027   
     length 0.49696   
     axis -3.26723e-015 90 90   XYZ
    dof rx
    limits (0.0 90.0)
  end
  begin
     id 23
     name lthumb
     direction 0.707107 -6.34998e-011 0.707107   
     length 0.713539   
     axis -90 45 -2.25915e-014   XYZ
    dof rx rz
    limits (-45.0 45.0)
           (-45.0 45.0)
  end
  begin
     id 24 
     name rclavicle
     direction -0.937751 0.334612 -0.0930482   
     length 3.46287  
     axis 0 0 0   XYZ 
    dof ry rz
    limits (-10.0 20.0)
           (-20.0 0.0)
  end
  begin
     id 25 
     name rhumerus
     direction -1 -4.48962e-011 3.59972e-027  
     length 5.352   
     axis 180 30 90   XYZ
    dof rx ry rz
    limits (-90.0 60.0)
           (-90.0 90.0)
           (-90.0 90.0)
  end
  begin
     id 26 
     name rradius
     direction -1 -4.48987e-011 -3.76925e-027   
     length 3.43721   
     axis 180 30 90   XYZ
    dof rx
    limits (-10.0 170.0)
  end
  begin
     id 27 
     name rwrist
     direction -1 -4.48943e-011 1.28112e-027   
     length 1.7186   
     axis -1.61767e-015 -90 -90   XYZ
    dof ry
    limits (-180.0 0.0)
  end
  begin
     id 28
     name rhand
     direction -1 -4.49027e-011 2.55483e-027   
     length 0.72009   
     axis -1.63363e-015 -90 -90   XYZ
    dof rx rz
    limits (-90.0 90.0)
           (-45.0 45.0)
  end
  begin
     id 29
     name rfingers
     direction -1 -4.48827e-011 5.14506e-027   
     length 0.580555   
     axis -3.26723e-015 -90 -90   XYZ
    dof rx
    limits (0.0 90.0)
  end
  begin
     id 30
     name rthumb
     direction -0.707107 -6.34936e-011 0.707107   
     length 0.833564   
     axis -90 -45 2.25915e-014   XYZ
    dof rx rz
    limits (-45.0 45.0)
           (-45.0 45.0)
  end
:hierarchy
  begin
    root lhipjoint rhipjoint lowerback
    lhipjoint lfemur
    lfemur ltibia
    ltibia lfoot
    lfoot ltoes
    rhipjoint rfemur
    rfemur rtibia
    rtibia rfoot
    rfoot rtoes
    lowerback upperback
    upperback thorax
    thorax lowerneck lclavicle rclavicle
    lowerneck upperneck
    upperneck head
    lclavicle lhumerus
    lhumerus lradius
    lradius lwrist
    lwrist lhand lthumb
    lhand lfingers
    rclavicle rhumerus
    rhumerus rradius
    rradius rwrist
    rwrist rhand rthumb
    rhand rfingers
  end

#!OML:ASF H:\Terrain\Patient Classification 1\Terrain2\Thursday\justin.ASF
:FULLY-SPECIFIED
:DEGREES
909
root 1.41567 19.8878 -11.5672 324.081 67.85 -22.281
lowerback 6.34151 -1.1248 14.7563
upperback 5.41656 -0.580551 5.34515
thorax 2.09794 0.198371 -2.56058
lowerneck -4.89791 -1.10781 -9.29325
upperneck 40.2307 1.36646 2.30209
head 14.7722 0.184903 3.00274
rclavicle 5.44918e-014 5.725e-014
rhumerus -31.3898 -3.75262 -75.829
rradius 32.5946
rwrist -9.27844
rhand -21.5469 12.2799
rfingers 7.12502
rthumb 4.84633 -17.6446
lclavicle 5.44918e-014 5.725e-014
lhumerus -38.7121 8.91992 81.1101
lradius 27.2201
lwrist -3.46003
lhand -23.2118 15.9356
lfingers 7.12502
lthumb 3.23855 45.8908
rfemur 22.0425 -1.9713 29.9609
rtibia 19.299
rfoot -23.3764 5.00342
rtoes 8.42179
lfemur -68.4793 20.2289 -7.24636
ltibia 81.6025
lfoot 20.215 -9.02799
ltoes 0.762409
910
root 1.49714 19.868 -11.5718 324.052 67.4748 -22.1891
lowerback 6.13072 -1.2946 15.0224
upperback 5.47815 -0.838468 5.43737
thorax 2.24691 0.0911809 -2.59341
lowerneck -5.07012 -0.861126 -9.66647
upperneck 40.4964 1.83145 2.36617
head 14.9118 0.330136 3.1693
rclavicle -5.46658e-015 -2.70347e-014
rhumerus -31.22 -2.62885 -76.1715
rradius 32.5091
rwrist -9.53479
rhand -21.5521 12.4295
rfingers 7.12502
rthumb 4.84127 -17.4952
lclavicle -5.46658e-015 -2.70347e-014
lhumerus -38.9361 9.66722 80.9178
lradius 27.1003
lwrist -3.34106
lhand -23.4694 16.1761
lfingers 7.12502
lthumb 2.9898 46.1349
rfemur 22.7013 -1.88868 29.9307
rtibia 18.8536
rfoot -23.6178 5.20911
rtoes 8.11571
lfemur -68.2882 20.3242 -6.94507
ltibia 80.505
lfoot 20.286 -9.83416
ltoes -0.926837
911
root 1.57872 19.8554 -11.5761 323.786 66.9718 -22.2934
lowerback 6.06108 -1.39296 15.3948
upperback 5.49136 -0.961574 5.57472
thorax 2.28588 0.0458555 -2.6409
lowerneck -5.00961 -0.727975 -9.71643
upperneck 40.6542 2.13289 2.16044
head 14.9628 0.42578 3.1354
rclavicle 2.16178e-014 3.49861e-014
rhumerus -31.2275 -1.80607 -76.3653
rradius 32.4487
rwrist -9.76266
rhand -21.2059 12.5596
rfingers 7.12502
rthumb 5.17551 -17.3572
lclavicle 2.16178e-014 3.49861e-014
lhumerus -39.2518 10.0884 80.8129
lradius 27.0245
lwrist -3.33509
lhand -23.0524 16.0489
lfingers 7.12502
lthumb 3.39249 46.0016
rfemur 23.513 -1.55216 30.1761
rtibia 18.2004
rfoot -23.4152 5.33644
rtoes 8.95733
lfemur -68.0047 20.4713 -6.41997
ltibia 79.4533
lfoot 20.7235 -10.4799
ltoes -1.93129
912
root 1.66184 19.8468 -11.5688 323.926 66.6596 -21.9048
lowerback 6.04963 -1.46022 15.2522
upperback 5.43384 -1.04942 5.75397
thorax 2.21806 -0.0103831 -2.37184
lowerneck -4.71695 -0.639475 -9.62674
upperneck 40.7673 2.42017 1.68676
head 14.9508 0.510343 2.95567
rclavicle -4.86029e-014 4.29375e-014
rhumerus -31.4424 -1.42208 -76.3117
rradius 32.5013
rwrist -9.48478
rhand -21.0848 12.352
rfingers 7.12502
rthumb 5.29246 -17.5619
lclavicle -4.86029e-014 4.29375e-014
lhumerus -39.7042 10.7311 80.7365
lradius 26.8568
lwrist -3.3555
lhand -22.6718 15.8318
lfingers 7.12502
lthumb 3.76001 45.7784
rfemur 24.5031 -1.19701 30.2121
rtibia 17.3465
rfoot -23.301 5.20714
rtoes 8.96555
lfemur -67.625 20.6096 -6.1527
ltibia 78.4019
lfoot 21.2042 -11.5781
ltoes -4.98076
913
root 1.74557 19.8385 -11.5499 324.32 66.364 -21.2573
lowerback 5.94635 -1.60489 14.754
upperback 5.43975 -1.27957 6.06
thorax 2.25306 -0.139976 -1.77373
lowerneck -4.50785 -0.387521 -10.0447
upperneck 40.8176 2.97599 1.41126
head 14.9047 0.657961 2.9816
rclavicle 3.45885e-014 -3.81667e-014
rhumerus -31.4232 -0.45287 -76.2217
rradius 32.5595
rwrist -9.5078
rhand -21.1612 11.9912
rfingers 7.12502
rthumb 5.21866 -17.9245
lclavicle 3.45885e-014 -3.81667e-014
lhumerus -40.2695 11.7262 80.7422
lradius 26.8457
lwrist -3.01557
lhand -22.8262 16.6758
lfingers 7.12502
lthumb 3.61092 46.6249
rfemur 25.484 -0.808429 30.1684
rtibia 16.5339
rfoot -23.1601 5.18273
rtoes 9.56427
lfemur -67.1225 20.7303 -5.84215
ltibia 77.299
lfoot 21.7708 -12.1633
ltoes -5.8558
914
root 1.82774 19.8182 -11.5275 324.002 65.7572 -21.3298
lowerback 5.91155 -1.7126 14.7913
upperback 5.51122 -1.42746 6.31297
thorax 2.33536 -0.203927 -1.51879
lowerneck -4.4933 -0.160297 -10.542
upperneck 40.9619 3.39475 1.51071
head 14.9426 0.773345 3.16905
rclavicle 5.60076e-014 -1.11319e-013
rhumerus -31.334 0.571846 -76.3807
rradius 32.5803
rwrist -10.0588
rhand -20.8494 11.5766
rfingers 7.12502
rthumb 5.51973 -18.3315
lclavicle 5.60076e-014 -1.11319e-013
lhumerus -40.7229 12.4437 80.6258
lradius 26.9347
lwrist -2.6636
lhand -23.2982 18.0405
lfingers 7.12502
lthumb 3.1551 47.9969
rfemur 26.4509 -0.245528 30.681
rtibia 15.8291
rfoot -22.8692 5.00192
rtoes 9.82271
lfemur -66.5622 21.0538 -5.06283
ltibia 76.1624
lfoot 22.6745 -12.0339
ltoes -1.78027
915
root 1.91159 19.8083 -11.5449 325.336 66.0168 -20.0711
lowerback 5.53998 -1.73148 14.4914
upperback 5.37835 -1.5394 6.15857
thorax 2.38345 -0.276036 -1.52531
lowerneck -4.48563 -0.102165 -10.6439
upperneck 41.1262 3.52336 1.51239
head 15.0162 0.81082 3.211
rclavicle -4.37326e-015 3.33958e-014
rhumerus -31.4521 1.08604 -76.5025
rradius 32.5362
rwrist -10.5353
rhand -20.9208 11.8909
rfingers 7.12502
rthumb 5.45079 -18.019
lclavicle -4.37326e-015 3.33958e-014
lhumerus -41.0046 12.9487 80.5094
lradius 26.8271
lwrist -2.55301
lhand -23.8768 18.5093
lfingers 7.12502
lthumb 2.5963 48.4733
rfemur 26.734 -0.382049 29.6708
rtibia 15.5424
rfoot -22.7609 5.70344
rtoes 11.3739
lfemur -66.4654 20.7601 -5.70079
ltibia 74.9054
lfoot 23.0597 -12.1729
ltoes 0.0623006
916
root 2.00222 19.7961 -11.5557 326.234 65.9904 -19.2315
lowerback 5.16397 -1.65797 14.3405
upperback 5.27148 -1.51941 6.15367
thorax 2.48355 -0.273317 -1.45854
lowerneck -4.29522 -0.0814529 -10.4629
upperneck 41.1578 3.58882 1.29425
head 14.995 0.84577 3.0927
rclavicle 4.08502e-014 1.27222e-014
rhumerus -31.7661 1.30815 -76.3963
rradius 32.6198
rwrist -10.6119
rhand -20.8853 11.9886
rfingers 7.12502
rthumb 5.48509 -17.9204
lclavicle 4.08502e-014 1.27222e-014
lhumerus -41.283 13.5286 80.3189
lradius 26.5128
lwrist -3.10813
lhand -23.9309 17.9347
lfingers 7.12502
lthumb 2.54407 47.8993
rfemur 27.0874 -0.398563 29.0072
rtibia 15.295
rfoot -22.995 6.33498
rtoes 12.8552
lfemur -66.2484 20.5868 -5.85227
ltibia 73.7089
lfoot 23.6329 -12.6342
ltoes 0.574362
917
root 2.0921 19.8158 -11.5954 331.857 67.2026 -14.0478
lowerback 4.09316 -1.57896 12.5478
upperback 4.93143 -1.68177 5.47433
thorax 2.69849 -0.427152 -1.23166
lowerneck -3.95761 0.08425 -10.3808
upperneck 41.0405 3.84438 1.09408
head 14.8495 0.955541 3.01227
rclavicle -3.85642e-014 -6.52014e-014
rhumerus -32.0806 1.77406 -76.4368
rradius 32.9222
rwrist -10.3513
rhand -20.1266 10.8384
rfingers 7.12502
rthumb 6.21755 -19.0504
lclavicle -3.85642e-014 -6.52014e-014
lhumerus -41.7488 14.2415 79.8947
lradius 26.3135
lwrist -3.96734
lhand -23.3078 17.1448
lfingers 7.12502
lthumb 3.14589 47.1013
rfemur 26.6917 -0.993397 25.4769
rtibia 15.1161
rfoot -23.4791 7.71527
rtoes 13.3896
lfemur -66.4638 19.8188 -8.6231
ltibia 72.3575
lfoot 23.705 -11.9764
ltoes 1.69444
